<?xml version="1.0" standalone="no"?>
<!DOCTYPE svg PUBLIC "-//W3C//DTD SVG 20010904//EN"
 "http://www.w3.org/TR/2001/REC-SVG-20010904/DTD/svg10.dtd">
<svg version="1.0" xmlns="http://www.w3.org/2000/svg"
 width="1254.000000pt" height="250.000000pt" viewBox="0 0 1254.000000 250.000000"
 preserveAspectRatio="xMidYMid meet">

<g transform="translate(0.000000,250.000000) scale(0.100000,-0.100000)"
fill="#000000" stroke="none">
<path d="M1178 2420 c-181 -29 -355 -160 -438 -332 -86 -178 -77 -389 25 -564
42 -73 149 -173 231 -216 90 -47 175 -68 284 -68 168 0 292 52 415 174 88 87
132 161 160 271 20 77 19 221 -1 299 -50 193 -215 362 -411 419 -67 20 -193
28 -265 17z m167 -237 l56 -173 195 0 c107 0 194 -4 194 -8 0 -5 -70 -59 -156
-121 -85 -62 -153 -118 -151 -124 26 -70 118 -360 115 -363 -2 -2 -75 48 -162
111 -90 66 -163 112 -170 108 -6 -4 -78 -56 -160 -116 -81 -59 -149 -107 -151
-105 -2 2 23 84 56 183 32 99 57 185 55 191 -2 6 -72 60 -155 120 -83 60 -151
113 -151 117 0 4 88 7 195 5 l196 -3 61 188 c36 110 65 183 69 175 4 -7 32
-91 64 -185z"/>
<path d="M8802 2075 c-138 -31 -231 -95 -279 -193 -24 -49 -28 -69 -28 -142 0
-76 3 -91 31 -140 21 -38 47 -66 85 -92 48 -32 89 -48 299 -114 117 -37 167
-93 150 -167 -18 -81 -99 -130 -215 -130 -119 0 -193 35 -226 107 -10 23 -19
53 -19 69 l0 27 -115 0 -115 0 0 -37 c0 -21 6 -60 14 -88 49 -185 184 -266
440 -266 227 -1 376 73 444 219 23 49 27 70 27 152 0 86 -3 100 -29 148 -48
86 -128 132 -303 172 -104 25 -168 52 -205 87 -23 22 -28 36 -28 73 0 55 18
84 69 110 90 45 230 33 288 -25 21 -21 35 -46 39 -74 l7 -41 115 0 115 0 -5
58 c-12 123 -103 234 -226 273 -86 27 -242 34 -330 14z"/>
<path d="M2613 1963 c-12 -54 -18 -102 -13 -106 4 -4 82 -7 173 -5 147 3 167
1 167 -13 0 -9 -20 -112 -45 -230 -25 -118 -52 -245 -60 -284 -8 -38 -29 -143
-48 -232 l-35 -163 123 0 c109 0 124 2 129 18 2 9 46 215 96 457 51 242 94
441 95 443 1 1 78 4 171 5 l168 2 16 75 c9 41 20 87 23 103 l7 27 -473 0 -474
0 -20 -97z"/>
<path d="M3705 2048 c-2 -7 -38 -177 -80 -378 -90 -435 -143 -687 -150 -717
-5 -23 -5 -23 118 -23 l124 0 37 178 c21 97 44 207 53 245 l15 67 229 0 c126
0 229 -2 229 -5 0 -3 -22 -112 -50 -242 -27 -130 -50 -238 -50 -240 0 -2 56
-3 123 -3 l124 0 15 73 c9 39 37 171 62 292 26 121 73 343 105 493 l58 273
-126 -3 -125 -3 -44 -212 -45 -213 -229 0 c-142 0 -228 4 -228 10 0 5 18 96
40 201 22 106 40 198 40 205 0 19 -239 20 -245 2z"/>
<path d="M4880 2052 c0 -8 -142 -693 -205 -987 -14 -65 -25 -123 -25 -127 0
-5 55 -7 122 -6 l122 3 45 218 46 218 167 -3 168 -3 32 -33 33 -32 -3 -185 -3
-185 124 0 125 0 -9 34 c-5 18 -8 111 -7 207 3 160 1 177 -17 209 -12 19 -35
44 -53 55 -36 23 -40 35 -12 35 30 0 100 37 138 74 19 17 46 54 60 81 24 45
27 61 27 150 0 92 -2 104 -29 152 -16 29 -46 64 -66 78 -74 51 -107 55 -457
55 -177 0 -323 -4 -323 -8z m559 -200 c52 -26 75 -63 74 -121 -1 -68 -31 -115
-97 -149 -48 -25 -59 -27 -218 -30 -138 -3 -168 -1 -168 10 0 8 9 54 19 103
11 50 25 116 31 148 l11 57 157 0 c130 0 163 -3 191 -18z"/>
<path d="M6026 2037 c-3 -12 -53 -252 -111 -532 -58 -281 -110 -525 -115 -542
l-8 -33 437 0 438 0 17 88 c10 48 19 95 22 105 5 16 -14 17 -305 17 -262 0
-311 2 -311 14 0 26 51 251 58 258 4 4 134 9 287 10 l280 3 17 75 c9 41 17 83
17 93 1 16 -19 17 -279 17 l-280 0 0 23 c1 12 11 66 23 120 l23 98 306 0 307
0 15 67 c8 37 18 84 21 105 l7 37 -430 0 -430 0 -6 -23z"/>
<path d="M7090 2058 c0 -2 -53 -256 -118 -565 l-118 -563 436 0 436 0 18 87
c9 49 20 96 22 106 5 16 -14 17 -305 17 -271 0 -311 2 -311 15 0 27 50 249 58
257 4 4 133 9 287 10 l279 3 18 80 c9 44 18 86 18 93 0 9 -63 12 -280 12 -260
0 -280 1 -280 18 1 9 11 63 23 120 l22 103 307 -1 307 -1 6 23 c11 50 35 170
35 179 0 8 -860 14 -860 7z"/>
<path d="M9515 2038 c-28 -123 -35 -155 -35 -170 0 -15 17 -17 173 -17 l172 0
-3 -28 c-2 -15 -44 -220 -93 -454 -49 -234 -89 -429 -89 -432 0 -4 55 -7 123
-7 l124 0 73 353 c40 193 83 398 94 454 12 56 24 105 29 109 4 4 79 6 166 5
114 -2 161 1 166 10 8 12 44 165 45 187 0 9 -100 12 -470 12 l-470 0 -5 -22z"/>
<path d="M10746 2038 c-32 -50 -639 -1084 -643 -1095 -4 -10 25 -13 123 -13
l129 0 69 125 69 125 213 0 c194 0 213 -2 218 -17 3 -10 10 -56 16 -103 18
-144 2 -130 140 -130 66 0 120 3 120 8 0 4 -41 258 -92 565 l-92 557 -128 0
c-121 0 -128 -1 -142 -22z m123 -420 c13 -106 25 -205 28 -220 l6 -28 -153 0
c-87 0 -150 4 -148 9 9 27 233 431 238 431 3 0 16 -87 29 -192z"/>
<path d="M11496 1878 c-21 -101 -49 -232 -62 -293 -13 -60 -37 -177 -54 -260
-17 -82 -42 -200 -56 -262 -13 -62 -24 -117 -24 -123 0 -7 40 -10 122 -8 l122
3 45 215 46 215 167 0 c163 0 167 -1 192 -24 42 -40 50 -83 38 -217 -5 -66 -7
-136 -5 -156 l5 -38 124 0 124 0 -11 27 c-6 16 -9 99 -7 202 3 160 1 180 -17
216 -11 22 -34 49 -52 60 -37 23 -42 35 -13 35 30 0 100 37 138 74 19 17 46
54 60 81 24 45 27 61 27 150 0 92 -2 104 -29 152 -16 29 -46 64 -66 78 -74 51
-107 55 -455 55 l-321 0 -38 -182z m593 -26 c51 -26 75 -63 75 -120 0 -65 -30
-111 -96 -148 -52 -28 -57 -29 -220 -32 -147 -3 -168 -2 -168 12 0 8 14 79 30
156 17 77 30 143 30 145 0 3 71 5 158 5 130 0 163 -3 191 -18z"/>
<path d="M1860 1239 c-136 -14 -254 -75 -358 -184 -115 -121 -162 -238 -162
-409 0 -186 77 -348 218 -458 118 -93 231 -132 382 -131 377 2 655 351 576
721 -42 195 -197 365 -398 438 -56 20 -176 31 -258 23z m125 -191 c25 -79 53
-162 62 -185 l16 -43 194 -2 195 -3 -156 -113 c-86 -62 -156 -116 -156 -120 0
-4 27 -88 59 -187 32 -99 57 -182 55 -184 -3 -3 -184 126 -290 206 l-31 23
-157 -116 c-87 -63 -160 -114 -162 -111 -2 2 23 86 56 188 32 101 56 187 52
190 -4 4 -74 55 -157 115 l-150 109 196 3 195 2 60 185 c32 101 62 185 66 185
4 0 28 -64 53 -142z"/>
<path d="M461 1210 c-355 -93 -542 -493 -386 -825 68 -146 203 -266 355 -315
107 -35 263 -35 369 -1 351 115 515 518 343 845 -125 240 -414 365 -681 296z
m219 -215 l62 -185 194 0 c107 0 194 -3 194 -7 -1 -5 -63 -52 -138 -106 -75
-54 -145 -105 -156 -112 -17 -13 -15 -22 44 -200 34 -102 60 -188 59 -190 -2
-1 -74 48 -159 111 -85 62 -159 113 -165 113 -5 0 -80 -51 -165 -114 -85 -62
-156 -112 -157 -111 -2 1 24 87 58 190 57 179 60 188 42 201 -10 8 -80 58
-155 112 -75 54 -137 101 -137 105 -1 4 87 9 195 10 l196 3 59 183 c33 100 62
182 64 182 2 0 31 -83 65 -185z"/>
<path d="M3264 710 c-32 -13 -64 -59 -64 -92 0 -41 38 -74 106 -93 108 -30
130 -48 113 -93 -24 -63 -150 -51 -178 16 -9 22 -17 28 -32 25 -24 -7 -24 -26
-2 -64 25 -43 74 -62 144 -57 78 6 119 41 119 102 0 57 -28 82 -126 112 -88
26 -105 44 -84 83 12 24 68 37 107 24 15 -5 34 -22 41 -36 17 -34 52 -37 52
-4 0 27 -32 64 -67 78 -30 11 -100 11 -129 -1z"/>
<path d="M3870 700 c-11 -11 -20 -33 -20 -50 0 -23 -4 -30 -20 -30 -13 0 -20
-7 -20 -20 0 -13 7 -20 20 -20 19 0 20 -7 20 -115 0 -108 1 -115 20 -115 18 0
20 8 22 113 3 108 4 112 26 115 32 5 30 42 -3 42 -27 0 -31 10 -15 41 6 11 21
19 35 19 18 0 25 5 25 20 0 16 -7 20 -35 20 -22 0 -43 -8 -55 -20z"/>
<path d="M5050 701 c-115 -61 -120 -261 -8 -332 48 -29 147 -23 184 11 39 37
59 80 42 91 -21 14 -36 10 -43 -11 -10 -31 -63 -70 -96 -70 -72 0 -119 57
-119 145 0 86 50 145 123 145 28 0 73 -32 82 -59 4 -13 12 -17 30 -13 29 5 29
5 10 43 -34 65 -132 89 -205 50z"/>
<path d="M5368 713 c-16 -4 -18 -21 -18 -184 0 -172 1 -179 20 -179 19 0 20 7
20 185 0 102 -1 184 -2 184 -2 -1 -11 -3 -20 -6z"/>
<path d="M6368 713 c-11 -3 -18 -14 -18 -29 0 -19 5 -24 25 -24 20 0 25 5 25
24 0 28 -7 34 -32 29z"/>
<path d="M7276 699 c-30 -24 -35 -75 -11 -113 15 -23 15 -25 -14 -45 -16 -12
-35 -37 -41 -55 -33 -101 81 -175 179 -115 l33 20 24 -22 c23 -21 25 -22 41
-6 16 16 15 19 -10 45 -24 25 -26 32 -17 56 5 15 10 34 10 42 0 22 -36 17 -46
-7 -9 -20 -11 -20 -38 15 l-28 37 31 35 c37 42 39 77 6 109 -30 31 -82 33
-119 4z m94 -38 c12 -24 4 -48 -22 -62 -22 -12 -43 1 -53 32 -14 43 53 69 75
30z m-6 -248 c-34 -31 -68 -29 -93 3 -28 36 -26 56 6 89 l28 27 42 -49 43 -48
-26 -22z"/>
<path d="M7820 713 c-68 -26 -110 -96 -110 -183 0 -70 31 -126 85 -158 54 -31
152 -28 208 7 37 23 37 23 37 92 l0 69 -75 0 c-68 0 -75 -2 -75 -20 0 -17 7
-20 50 -20 l50 0 0 -39 c0 -36 -3 -40 -40 -55 -70 -28 -126 -15 -169 40 -24
31 -29 123 -8 164 17 34 74 70 111 70 38 0 92 -32 101 -59 7 -23 13 -25 35
-11 23 14 -10 73 -53 93 -34 16 -116 22 -147 10z"/>
<path d="M9488 713 c-16 -4 -18 -21 -18 -184 l0 -180 23 3 c22 3 22 5 25 177
1 96 -1 177 -5 181 -5 4 -16 5 -25 3z"/>
<path d="M9805 707 c-32 -15 -55 -53 -55 -91 0 -42 32 -67 120 -95 90 -29 107
-44 97 -83 -16 -64 -138 -63 -175 2 -9 16 -25 30 -34 30 -41 0 -3 -85 47 -106
102 -42 215 7 215 94 0 51 -40 85 -125 106 -80 20 -95 30 -95 62 0 65 140 72
156 7 4 -16 13 -23 30 -23 33 0 31 31 -5 72 -24 28 -35 32 -87 35 -36 2 -71
-2 -89 -10z"/>
<path d="M11118 713 c-26 -7 -24 -53 2 -53 16 0 20 7 20 30 0 17 -1 29 -2 29
-2 -1 -11 -3 -20 -6z"/>
<path d="M10972 533 c3 -176 3 -178 26 -181 l22 -3 0 180 0 181 -25 0 -25 0 2
-177z"/>
<path d="M4302 688 c-7 -7 -12 -25 -12 -40 0 -18 -5 -28 -15 -28 -8 0 -15 -9
-15 -20 0 -11 7 -20 15 -20 12 0 15 -17 15 -93 0 -111 12 -137 66 -137 19 0
34 3 34 8 0 13 -15 28 -32 35 -15 5 -18 20 -18 97 0 83 1 90 20 90 13 0 20 7
20 20 0 13 -7 20 -20 20 -17 0 -20 7 -20 40 0 41 -14 52 -38 28z"/>
<path d="M3569 591 c-16 -16 -29 -34 -29 -40 0 -20 39 -11 64 14 27 27 42 30
80 15 18 -7 26 -17 26 -34 0 -27 -8 -31 -75 -41 -63 -10 -98 -41 -97 -86 0
-22 8 -40 23 -51 27 -23 97 -23 128 -2 22 16 24 16 33 0 12 -21 52 -22 44 0
-3 9 -6 58 -6 110 0 87 -2 97 -25 119 -20 21 -34 25 -80 25 -49 0 -60 -4 -86
-29z m141 -139 c0 -55 -68 -88 -111 -53 -32 27 -17 52 42 68 65 17 69 16 69
-15z"/>
<path d="M4018 591 c-32 -28 -33 -32 -33 -106 0 -74 1 -78 33 -106 27 -24 41
-29 83 -29 45 0 55 4 87 36 36 36 36 37 16 46 -17 8 -27 4 -53 -22 -26 -26
-37 -31 -59 -25 -32 7 -57 31 -67 63 -6 22 -5 22 94 22 l101 0 0 25 c0 38 -25
90 -51 109 -14 9 -43 16 -71 16 -39 0 -54 -6 -80 -29z m126 -22 c14 -11 26
-29 26 -40 0 -17 -8 -19 -74 -19 -69 0 -74 1 -69 20 7 25 49 60 73 60 10 0 29
-9 44 -21z"/>
<path d="M4420 612 c0 -6 20 -64 45 -130 25 -66 45 -126 45 -134 0 -26 -31
-58 -57 -58 -19 0 -24 -4 -19 -16 3 -9 6 -18 6 -20 0 -14 62 -1 79 17 16 18
132 318 131 342 0 5 -10 7 -22 5 -17 -2 -28 -22 -56 -101 -19 -53 -36 -96 -38
-94 -1 1 -18 45 -36 97 -28 77 -38 96 -56 98 -12 2 -22 -1 -22 -6z"/>
<path d="M5500 593 c-59 -53 -59 -163 0 -215 25 -23 40 -28 81 -28 45 0 55 4
87 36 36 36 36 37 15 45 -18 6 -29 2 -53 -22 -25 -25 -36 -30 -58 -24 -32 7
-57 31 -67 63 -6 22 -5 22 94 22 100 0 101 0 101 24 0 37 -17 74 -46 101 -39
37 -112 35 -154 -2z m124 -24 c14 -11 26 -29 26 -40 0 -17 -8 -19 -75 -19 -47
0 -75 4 -75 11 0 18 57 69 78 69 11 0 31 -9 46 -21z"/>
<path d="M5805 608 c-24 -14 -44 -39 -45 -55 0 -22 38 -14 64 12 14 14 33 25
43 25 27 0 63 -28 63 -50 0 -21 -12 -26 -84 -36 -88 -12 -123 -78 -71 -129 29
-30 97 -34 134 -9 22 16 24 16 33 0 12 -21 52 -22 44 0 -3 9 -6 58 -6 110 0
87 -2 97 -25 119 -20 20 -34 25 -77 25 -29 0 -62 -6 -73 -12z m125 -149 c0
-34 -18 -57 -54 -69 -44 -14 -76 0 -76 34 0 29 37 46 118 55 6 0 12 -8 12 -20z"/>
<path d="M6060 485 c0 -128 1 -135 20 -135 18 0 20 7 20 79 0 115 17 151 71
151 43 0 49 -16 49 -127 l0 -103 26 0 26 0 -4 116 c-3 108 -5 117 -27 135 -28
23 -88 25 -119 3 -20 -14 -22 -14 -22 0 0 9 -9 16 -20 16 -19 0 -20 -7 -20
-135z"/>
<path d="M6350 485 c0 -136 0 -136 23 -133 22 3 22 6 22 133 0 127 0 130 -22
133 -23 3 -23 3 -23 -133z"/>
<path d="M6480 485 c0 -128 1 -135 20 -135 18 0 20 7 20 88 0 107 12 136 60
140 51 5 60 -14 60 -130 0 -91 1 -98 20 -98 19 0 20 7 20 115 0 102 -2 117
-20 135 -24 24 -86 27 -118 4 -20 -14 -22 -14 -22 0 0 9 -9 16 -20 16 -19 0
-20 -7 -20 -135z"/>
<path d="M6790 592 c-51 -52 -52 -147 -1 -204 22 -25 35 -31 69 -31 23 0 48 6
57 13 13 11 15 8 15 -16 0 -35 -8 -47 -38 -63 -30 -16 -68 -7 -82 19 -13 24
-50 27 -50 5 0 -9 11 -27 25 -40 19 -20 34 -25 74 -25 42 0 56 5 83 29 l33 29
4 156 c3 151 3 156 -17 156 -11 0 -22 -5 -24 -11 -3 -9 -9 -9 -25 0 -40 21
-92 14 -123 -17z m115 -27 c52 -52 24 -175 -40 -175 -27 0 -61 37 -68 74 -7
40 10 93 36 111 30 21 44 19 72 -10z"/>
<path d="M8159 605 c-77 -42 -77 -200 0 -239 16 -9 51 -16 76 -16 38 0 52 5
76 29 33 34 36 46 12 55 -11 5 -24 -2 -37 -18 -12 -13 -31 -27 -43 -31 -38
-11 -92 29 -93 68 0 15 11 17 96 17 l97 0 -6 47 c-7 64 -49 103 -110 103 -23
-1 -54 -7 -68 -15z m101 -30 c17 -9 30 -20 30 -24 0 -5 3 -16 6 -25 5 -14 -5
-16 -70 -16 -47 0 -76 4 -76 11 0 21 22 50 43 59 31 12 34 12 67 -5z"/>
<path d="M8410 485 l0 -135 25 0 c25 0 25 0 25 98 0 111 13 136 66 130 41 -4
54 -38 54 -140 0 -81 2 -88 20 -88 19 0 20 7 20 109 0 94 -3 112 -21 135 -16
21 -29 26 -63 26 -23 0 -52 -7 -64 -16 -20 -14 -22 -14 -22 0 0 9 -9 16 -20
16 -19 0 -20 -7 -20 -135z"/>
<path d="M8728 591 c-32 -28 -33 -32 -33 -106 0 -74 1 -78 33 -106 27 -24 41
-29 83 -29 45 0 55 4 87 36 36 36 36 37 16 46 -17 8 -27 4 -53 -22 -26 -26
-37 -31 -59 -25 -32 7 -57 31 -67 63 -6 22 -5 22 94 22 l101 0 0 25 c0 38 -25
90 -51 109 -14 9 -43 16 -71 16 -39 0 -54 -6 -80 -29z m126 -22 c14 -11 26
-29 26 -40 0 -17 -8 -19 -70 -19 -62 0 -70 2 -70 19 0 22 44 61 70 61 10 0 29
-9 44 -21z"/>
<path d="M9000 485 c0 -126 1 -135 19 -135 17 0 19 10 23 101 2 86 6 103 22
115 11 8 28 12 37 9 24 -8 46 30 23 39 -29 11 -63 6 -72 -10 -8 -15 -10 -15
-15 0 -4 9 -13 16 -22 16 -13 0 -15 -20 -15 -135z"/>
<path d="M9199 591 c-16 -16 -29 -34 -29 -40 0 -20 39 -11 64 14 14 14 33 25
43 25 27 0 63 -28 63 -50 0 -19 -9 -24 -73 -35 -56 -9 -83 -24 -96 -52 -16
-36 -14 -51 14 -78 29 -30 97 -34 134 -9 22 16 24 16 33 0 12 -21 52 -22 44 0
-3 9 -6 58 -6 110 0 87 -2 97 -25 119 -20 21 -34 25 -80 25 -49 0 -60 -4 -86
-29z m141 -132 c0 -52 -54 -88 -103 -70 -52 20 -28 68 41 82 58 11 62 10 62
-12z"/>
<path d="M10100 507 c0 -106 2 -115 23 -135 27 -26 84 -29 113 -7 25 19 34 19
34 0 0 -8 7 -15 15 -15 13 0 15 22 15 135 0 128 -1 135 -20 135 -19 0 -20 -7
-20 -93 0 -111 -13 -137 -65 -137 -47 0 -55 20 -55 134 0 89 -1 96 -20 96 -19
0 -20 -7 -20 -113z"/>
<path d="M10390 435 c0 -178 1 -185 20 -185 18 0 20 7 20 60 0 55 10 75 25 50
3 -5 24 -10 45 -10 29 0 48 7 71 28 27 24 33 37 37 85 6 71 -1 97 -34 130 -32
32 -96 37 -126 10 -17 -15 -18 -15 -18 0 0 10 -8 17 -20 17 -19 0 -20 -7 -20
-185z m147 131 c25 -21 28 -31 28 -81 0 -50 -3 -60 -28 -81 -53 -45 -107 -6
-107 78 0 41 5 54 29 79 36 35 42 36 78 5z"/>
<path d="M10680 435 c0 -178 1 -185 20 -185 18 0 20 7 20 61 0 54 2 60 18 53
9 -4 34 -9 54 -12 33 -3 43 1 71 29 80 80 41 239 -58 239 -20 0 -46 -5 -58
-11 -16 -9 -22 -9 -25 0 -2 6 -12 11 -23 11 -18 0 -19 -9 -19 -185z m135 149
c41 -16 60 -119 29 -162 -23 -34 -49 -44 -78 -31 -54 25 -61 133 -11 176 28
25 34 26 60 17z"/>
<path d="M11100 485 c0 -128 1 -135 20 -135 19 0 20 7 20 135 0 128 -1 135
-20 135 -19 0 -20 -7 -20 -135z"/>
<path d="M11244 586 c-32 -32 -34 -38 -34 -101 0 -63 2 -69 34 -101 30 -30 40
-34 86 -34 47 0 56 4 88 36 36 36 36 37 16 46 -17 8 -27 4 -53 -22 -37 -38
-71 -36 -108 6 -43 47 -33 54 77 54 111 0 110 -1 90 72 -14 50 -55 78 -115 78
-40 0 -52 -5 -81 -34z m130 -17 c14 -11 26 -29 26 -40 0 -17 -8 -19 -75 -19
-47 0 -75 4 -75 11 0 18 57 69 78 69 11 0 31 -9 46 -21z"/>
<path d="M11529 602 c-25 -21 -30 -71 -10 -96 7 -8 42 -25 77 -36 36 -12 68
-29 71 -37 7 -19 -14 -40 -49 -48 -23 -6 -33 -2 -57 24 -31 33 -61 41 -61 15
0 -8 13 -29 29 -45 25 -24 37 -29 81 -29 64 0 100 30 100 83 0 42 -13 54 -87
77 -67 21 -88 44 -59 66 29 21 54 17 82 -11 30 -30 54 -32 54 -6 0 53 -120 83
-171 43z"/>
<path d="M4675 379 c1 -11 7 -24 14 -29 10 -6 10 -12 2 -28 -14 -27 -14 -32 3
-32 18 0 26 22 26 71 0 34 -3 39 -23 39 -18 0 -23 -5 -22 -21z"/>
</g>
</svg>
